                                          <svg class="icon-delivery-alt "    aria-hidden="true"    focusable="false"    role="presentation"    xmlns="http://www.w3.org/2000/svg" width="44" height="44" viewBox="0 0 44 44" fill="none">          <title>Delivery icon</title>        <path d="M23.3354 38.6072L6.6199 35.0864C5.3834 34.8263 4.09917 35.2082 3.20574 36.1017L1.83334 37.4741" stroke="currentColor" stroke-width="1.75" stroke-linecap="round" stroke-linejoin="round"/>      <path d="M28.9241 33.8244L35.4042 5.97387C35.7838 4.266 37.2969 3.04965 39.0464 3.04585H42.599" stroke="currentColor" stroke-width="1.75" stroke-linecap="round" stroke-linejoin="round"/>      <path d="M26.0447 27.6598L30.3806 9.47277C30.6146 8.47108 29.9956 7.46852 28.9952 7.22907L12.6274 3.31755C11.6257 3.08357 10.6231 3.70265 10.3837 4.70304L4.73706 28.346C4.62187 28.8285 4.70314 29.337 4.96299 29.7596C5.22284 30.1821 5.63997 30.4841 6.12254 30.599L19.5679 33.8038" stroke="currentColor" stroke-width="1.75" stroke-linecap="round" stroke-linejoin="round"/>      <path d="M17.1653 4.40201L15.6489 10.7592C15.5666 11.1035 15.686 11.4648 15.9571 11.6924C16.2283 11.92 16.6048 11.9749 16.9297 11.8343L19.5025 10.7124L21.3161 12.8944C21.5418 13.1646 21.9002 13.2851 22.2433 13.2061C22.5864 13.1272 22.8561 12.8621 22.9409 12.5205L24.5601 6.14461" stroke="currentColor" stroke-width="1.75" stroke-linecap="round" stroke-linejoin="round"/>      <path fill-rule="evenodd" clip-rule="evenodd" d="M28.0098 43.0834C30.5914 43.0834 32.6842 40.9906 32.6842 38.409C32.6842 35.8274 30.5914 33.7346 28.0098 33.7346C25.4282 33.7346 23.3354 35.8274 23.3354 38.409C23.3354 40.9906 25.4282 43.0834 28.0098 43.0834Z" stroke="currentColor" stroke-width="1.75" stroke-linecap="round" stroke-linejoin="round"/>    </svg>                                                                        
