                                            <svg class="icon-delivery "    aria-hidden="true"    focusable="false"    role="presentation"    xmlns="http://www.w3.org/2000/svg" width="44" height="40" viewBox="0 0 44 40" fill="none">          <title>Delivery icon</title>        <path fill-rule="evenodd" clip-rule="evenodd" d="M9.16665 34.6667C11.1917 34.6667 12.8333 33.0251 12.8333 31C12.8333 28.975 11.1917 27.3333 9.16665 27.3333C7.14161 27.3333 5.49998 28.975 5.49998 31C5.49998 33.0251 7.14161 34.6667 9.16665 34.6667Z" stroke="currentColor" stroke-width="1.75" stroke-linecap="round" stroke-linejoin="round"/>      <path fill-rule="evenodd" clip-rule="evenodd" d="M34.8333 34.6667C36.8584 34.6667 38.5 33.0251 38.5 31C38.5 28.975 36.8584 27.3333 34.8333 27.3333C32.8083 27.3333 31.1667 28.975 31.1667 31C31.1667 33.0251 32.8083 34.6667 34.8333 34.6667Z" stroke="currentColor" stroke-width="1.75" stroke-linecap="round" stroke-linejoin="round"/>      <path d="M5.49999 31H2.74999C1.73747 31 0.916658 30.1792 0.916658 29.1667V21.8608C0.916008 21.2679 1.2022 20.7112 1.68482 20.3667L7.33332 18.1667L8.82016 10.3878C9.0245 9.57214 9.75758 9.00003 10.5985 9.00001H17.4167V7.16668C17.4167 6.15415 18.2375 5.33334 19.25 5.33334H41.25C42.2625 5.33334 43.0833 6.15415 43.0833 7.16668V29.1667C43.0833 30.1792 42.2625 31 41.25 31H38.5" stroke="currentColor" stroke-width="1.75" stroke-linecap="round" stroke-linejoin="round"/>      <path d="M12.8333 31H31.1667" stroke="currentColor" stroke-width="1.75" stroke-linecap="round" stroke-linejoin="round"/>      <path d="M17.4167 9V27.3333" stroke="currentColor" stroke-width="1.75" stroke-linecap="round" stroke-linejoin="round"/>      <path d="M0.916656 25.5H3.66666" stroke="currentColor" stroke-width="1.75" stroke-linecap="round" stroke-linejoin="round"/>      <path d="M7.33333 18.1667H17.4167" stroke="currentColor" stroke-width="1.75" stroke-linecap="round" stroke-linejoin="round"/>    </svg>                                                                      
