                      <svg class="icon-chat-alternate "    aria-hidden="true"    focusable="false"    role="presentation"    xmlns="http://www.w3.org/2000/svg" width="44" height="44" viewBox="0 0 44 44" fill="none">          <title>Chat icon</title>        <path fill-rule="evenodd" clip-rule="evenodd" d="M13.75 27.5C18.0532 27.5 21.5417 24.0115 21.5417 19.7083C21.5417 15.4051 18.0532 11.9167 13.75 11.9167C9.44678 11.9167 5.95833 15.4051 5.95833 19.7083C5.95833 24.0115 9.44678 27.5 13.75 27.5Z" stroke="currentColor" stroke-width="1.75" stroke-linecap="round" stroke-linejoin="round"/>      <path fill-rule="evenodd" clip-rule="evenodd" d="M0.916656 43.0833C0.916657 35.9957 6.66234 30.25 13.75 30.25C20.8376 30.25 26.5833 35.9957 26.5833 43.0833H0.916656Z" stroke="currentColor" stroke-width="1.75" stroke-linecap="round" stroke-linejoin="round"/>      <path d="M25.6282 22.0623C26.5264 22.4134 27.4621 22.6594 28.4167 22.7957C28.4167 23.8407 28.4167 27.5073 28.4167 28.424C29.3334 27.5073 34.8334 22.924 35.75 22.0788C40.0663 20.5454 42.9852 16.5035 43.0834 11.924C42.8242 5.59741 37.4939 0.673845 31.1667 0.916659C26.2717 0.814316 21.8153 3.726 19.943 8.24999" stroke="currentColor" stroke-width="1.75" stroke-linecap="round" stroke-linejoin="round"/>      <path d="M26.125 11.4418C26.2467 11.4413 26.3636 11.4895 26.4496 11.5755C26.5357 11.6616 26.5838 11.7785 26.5833 11.9002V11.9002C26.5838 12.0219 26.5357 12.1387 26.4496 12.2248C26.3636 12.3109 26.2467 12.359 26.125 12.3585V12.3585C26.0033 12.359 25.8864 12.3109 25.8004 12.2248C25.7143 12.1387 25.6662 12.0219 25.6667 11.9002V11.9002C25.6667 11.647 25.8719 11.4418 26.125 11.4418" stroke="currentColor" stroke-width="1.75" stroke-linecap="round" stroke-linejoin="round"/>      <path d="M31.1667 11.4418C31.4198 11.4418 31.625 11.647 31.625 11.9002V11.9002C31.6255 12.0219 31.5774 12.1387 31.4913 12.2248C31.4052 12.3109 31.2884 12.359 31.1667 12.3585V12.3585C31.045 12.359 30.9281 12.3109 30.842 12.2248C30.756 12.1387 30.7078 12.0219 30.7083 11.9002V11.9002C30.7083 11.647 30.9135 11.4418 31.1667 11.4418" stroke="currentColor" stroke-width="1.75" stroke-linecap="round" stroke-linejoin="round"/>      <path d="M36.2083 11.4418C36.4615 11.4418 36.6667 11.647 36.6667 11.9002V11.9002C36.6671 12.0219 36.619 12.1387 36.533 12.2248C36.4469 12.3109 36.33 12.359 36.2083 12.3585V12.3585C36.0866 12.359 35.9698 12.3109 35.8837 12.2248C35.7976 12.1387 35.7495 12.0219 35.75 11.9002V11.9002C35.75 11.647 35.9552 11.4418 36.2083 11.4418" stroke="currentColor" stroke-width="1.75" stroke-linecap="round" stroke-linejoin="round"/>    </svg>                                                                                            
